<?xml version="1.0" encoding="UTF-8" standalone="no"?>
<!DOCTYPE svg PUBLIC "-//W3C//DTD SVG 1.1//EN"
 "http://www.w3.org/Graphics/SVG/1.1/DTD/svg11.dtd">
<!-- Generated by graphviz version 2.28.0 (20111028.1807)
 -->
<!-- Title: G Pages: 1 -->
<svg width="366pt" height="238pt"
 viewBox="0.00 0.00 366.00 238.00" xmlns="http://www.w3.org/2000/svg" xmlns:xlink="http://www.w3.org/1999/xlink">
<g id="graph1" class="graph" transform="scale(1 1) rotate(0) translate(4 234)">
<title>G</title>
<polygon fill="white" stroke="white" points="-4,5 -4,-234 363,-234 363,5 -4,5"/>
<g id="graph2" class="cluster"><title>cluster_</title>
<polyline fill="none" stroke="gray" points="190,-8 338,-8 "/>
<path fill="none" stroke="gray" d="M338,-8C344,-8 350,-14 350,-20"/>
<polyline fill="none" stroke="gray" points="350,-20 350,-210 "/>
<path fill="none" stroke="gray" d="M350,-210C350,-216 344,-222 338,-222"/>
<polyline fill="none" stroke="gray" points="338,-222 190,-222 "/>
<path fill="none" stroke="gray" d="M190,-222C184,-222 178,-216 178,-210"/>
<polyline fill="none" stroke="gray" points="178,-210 178,-20 "/>
<path fill="none" stroke="gray" d="M178,-20C178,-14 184,-8 190,-8"/>
</g>
<!-- \\Basicmodel -->
<g id="node2" class="node"><title>\\Basicmodel</title>
<a xlink:href="Basicmodel.html" xlink:title="Basicmodel" target="_parent">
<polygon fill="none" stroke="black" points="305.011,-214 222.989,-214 222.989,-178 305.011,-178 305.011,-214"/>
<text text-anchor="middle" x="264" y="-191.6" font-family="Courier,monospace" font-size="11.00">Basicmodel</text>
</a>
</g>
<!-- CI_Model -->
<g id="node7" class="node"><title>CI_Model</title>
<ellipse fill="none" stroke="black" cx="57" cy="-196" rx="50.9704" ry="18"/>
<text text-anchor="middle" x="57" y="-190.4" font-family="Times,serif" font-size="14.00" fill="gray">CI_Model</text>
</g>
<!-- \\Basicmodel&#45;&gt;CI_Model -->
<g id="edge3" class="edge"><title>\\Basicmodel&#45;&gt;CI_Model</title>
<path fill="none" stroke="black" d="M222.987,-196C193.209,-196 152.052,-196 118.295,-196"/>
<polygon fill="none" stroke="black" points="118.077,-192.5 108.077,-196 118.077,-199.5 118.077,-192.5"/>
</g>
<!-- \\Basicmodel_base -->
<g id="node3" class="node"><title>\\Basicmodel_base</title>
<a xlink:href="lib.Basicmodel_base.html" xlink:title="Basicmodel_base" target="_parent">
<polygon fill="none" stroke="black" points="321.516,-160 206.484,-160 206.484,-124 321.516,-124 321.516,-160"/>
<text text-anchor="middle" x="264" y="-137.6" font-family="Courier,monospace" font-size="11.00">Basicmodel_base</text>
</a>
</g>
<!-- Basicmodel -->
<g id="node9" class="node"><title>Basicmodel</title>
<ellipse fill="none" stroke="black" cx="57" cy="-88" rx="56.7579" ry="18"/>
<text text-anchor="middle" x="57" y="-82.4" font-family="Times,serif" font-size="14.00" fill="gray">Basicmodel</text>
</g>
<!-- \\Basicmodel_base&#45;&gt;Basicmodel -->
<g id="edge5" class="edge"><title>\\Basicmodel_base&#45;&gt;Basicmodel</title>
<path fill="none" stroke="black" d="M206.44,-127.101C176.65,-119.254 140.333,-109.688 111.077,-101.981"/>
<polygon fill="none" stroke="black" points="111.608,-98.5017 101.046,-99.3389 109.825,-105.271 111.608,-98.5017"/>
</g>
<!-- \\Basicmodel_collection -->
<g id="node4" class="node"><title>\\Basicmodel_collection</title>
<a xlink:href="lib.Basicmodel_collection.html" xlink:title="Basicmodel_collection" target="_parent">
<polygon fill="none" stroke="black" points="341.123,-106 186.877,-106 186.877,-70 341.123,-70 341.123,-106"/>
<text text-anchor="middle" x="264" y="-83.6" font-family="Courier,monospace" font-size="11.00">Basicmodel_collection</text>
</a>
</g>
<!-- \\Basicmodel_collection&#45;&gt;Basicmodel -->
<g id="edge7" class="edge"><title>\\Basicmodel_collection&#45;&gt;Basicmodel</title>
<path fill="none" stroke="black" d="M186.666,-88C166.114,-88 144.059,-88 124.116,-88"/>
<polygon fill="none" stroke="black" points="123.899,-84.5001 113.899,-88 123.899,-91.5001 123.899,-84.5001"/>
</g>
<!-- \\Basicmodel_model -->
<g id="node5" class="node"><title>\\Basicmodel_model</title>
<a xlink:href="lib.Basicmodel_model.html" xlink:title="Basicmodel_model" target="_parent">
<polygon fill="none" stroke="black" points="324.618,-52 203.382,-52 203.382,-16 324.618,-16 324.618,-52"/>
<text text-anchor="middle" x="264" y="-29.6" font-family="Courier,monospace" font-size="11.00">Basicmodel_model</text>
</a>
</g>
<!-- \\Basicmodel_model&#45;&gt;Basicmodel -->
<g id="edge9" class="edge"><title>\\Basicmodel_model&#45;&gt;Basicmodel</title>
<path fill="none" stroke="black" d="M203.154,-49.7642C173.977,-57.45 139.186,-66.6143 110.981,-74.044"/>
<polygon fill="none" stroke="black" points="110.078,-70.6625 101.299,-76.5944 111.861,-77.4316 110.078,-70.6625"/>
</g>
</g>
</svg>
